<svg width="100" height="30" viewBox="0 0 100 30" fill="none" xmlns="http://www.w3.org/2000/svg">
<path d="M-21.2653 27.2378V80.7858H43.7754H108.816V27.2378V-26.3101H43.7754H-21.2653V27.2378ZM9.41564 8.53061C10.2591 8.78171 10.9197 9.2337 11.5091 9.9619C12.2815 10.9035 13.0843 13.2388 12.6473 13.2388C12.5356 13.2388 12.4441 13.0505 12.3628 12.6989C12.0478 11.2425 11.1331 9.86146 10.0559 9.24626C9.21239 8.76916 7.77946 8.70638 6.77336 9.09559C5.06605 9.77357 3.79572 11.6569 3.36889 14.1428C3.24694 14.8082 3.21645 15.4736 3.2571 16.5659C3.3384 19.0016 3.76523 20.4204 4.80182 21.7261C5.49288 22.605 5.99084 22.9565 6.90548 23.2202C9.08027 23.8479 11.0823 22.7933 12.0071 20.5208C12.2002 20.0437 12.3831 19.4285 12.4238 19.1523C12.4746 18.7631 12.5356 18.6375 12.688 18.6375C12.9014 18.6375 12.8913 18.8008 12.5965 19.8931C12.2408 21.2365 11.4482 22.4794 10.5742 23.0695C9.51727 23.7726 7.88109 23.9861 6.63109 23.5968C4.96442 23.057 3.60263 21.2365 3.07418 18.8133C2.80995 17.6457 2.75913 15.4987 2.96239 14.2307C3.62296 10.1502 6.438 7.6643 9.41564 8.53061ZM24.1108 8.65616C24.7917 8.89471 25.0152 9.08304 24.9238 9.35925C24.812 9.68569 20.2693 13.5527 19.9949 13.5527H19.7408L19.5884 11.4434C19.4461 9.54758 19.4461 9.32159 19.5884 9.17092C19.751 8.9826 20.8791 8.51805 21.3669 8.41761C21.9461 8.30462 23.5112 8.44272 24.1108 8.65616ZM91.3465 8.51805C93.3689 9.04537 94.9238 11.0542 95.4624 13.8038C95.6961 14.984 95.6961 17.2941 95.4726 18.3864C95.0661 20.3325 94.0193 22.1781 92.8913 22.9691C91.6108 23.8479 89.9136 24.0488 88.5213 23.4713C87.5965 23.0821 87.0681 22.6552 86.3567 21.6885C85.3201 20.2948 84.8323 18.4994 84.8323 16.0637C84.8323 14.0047 85.0965 12.8245 85.8791 11.2676C86.997 9.03282 89.1717 7.95307 91.3465 8.51805ZM32.7998 10.1C33.1758 10.8282 34.8018 14.0423 36.4177 17.2439L39.3547 23.0821L39.3852 15.9005C39.4055 9.63547 39.4258 8.71894 39.5579 8.71894C39.69 8.71894 39.7104 9.64802 39.7104 16.1265V23.5341H39.436C39.1819 23.5341 39.06 23.3583 38.3791 21.9898C37.9522 21.1486 36.3262 17.9219 34.7713 14.8333L31.936 9.20859L31.9055 16.3776C31.8852 23.1197 31.875 23.5466 31.7022 23.509C31.5396 23.4713 31.5295 22.9816 31.499 16.0888L31.4787 8.70638L31.8039 8.74405C32.0884 8.78171 32.2002 8.91982 32.7998 10.1ZM51.1738 8.8696C51.1331 8.99515 50.5539 9.04537 48.8262 9.07048L46.5193 9.09559V16.3148C46.5193 22.6426 46.499 23.5341 46.3669 23.5341C46.2348 23.5341 46.2144 22.6426 46.2144 16.3148V9.09559H43.877C41.8648 9.09559 41.5396 9.07048 41.5396 8.90727C41.5396 8.74405 42.1494 8.71894 46.377 8.71894C50.1982 8.71894 51.2043 8.7566 51.1738 8.8696ZM60.1372 8.90727C60.1372 9.07048 59.6799 9.09559 56.6311 9.09559H53.125V12.4855V15.8754H56.4278C59.2835 15.8754 59.7307 15.9005 59.7307 16.0637C59.7307 16.2269 59.2734 16.2521 56.4583 16.2772L53.1758 16.3148V19.7047V23.0946L56.7632 23.1323C59.5681 23.1574 60.3506 23.1951 60.31 23.3206C60.2795 23.4336 59.3953 23.4838 56.5498 23.509L52.8201 23.5341V16.1265V8.71894H56.4787C59.6595 8.71894 60.1372 8.74405 60.1372 8.90727ZM66.438 15.2727C68.2571 18.8635 69.8933 22.1028 70.0661 22.4543L70.3913 23.0946L70.4014 15.9005C70.4014 9.5978 70.4217 8.71894 70.5539 8.71894C70.686 8.71894 70.7063 9.62291 70.7063 16.1265V23.5341H70.4319C70.1778 23.5215 70.0559 23.3332 69.2632 21.7387C67.7896 18.7882 63.2469 9.77357 63.064 9.45969C62.9014 9.17092 62.8913 9.54758 62.8913 16.3399C62.8811 22.6426 62.8608 23.5341 62.7287 23.5341C62.5965 23.5341 62.5762 22.6301 62.5762 16.1265V8.71894H62.8608C63.1148 8.71894 63.3689 9.18348 66.438 15.2727ZM79.1413 8.85704C80.5234 9.24626 81.8852 10.6148 82.5254 12.2469C83.7856 15.436 83.2266 19.8052 81.2957 21.9144C80.625 22.6426 79.5884 23.2579 78.7652 23.4085C78.3892 23.4838 77.0884 23.5215 75.8892 23.509L73.7043 23.4713L73.6738 16.0888L73.6535 8.71894H76.1636C77.5559 8.71894 78.8872 8.78171 79.1413 8.85704ZM26.438 10.1879C27.3831 11.1044 28.2774 12.8747 28.562 14.4567C28.6839 15.097 28.6839 15.2853 28.5823 15.4611C28.4604 15.662 28.2165 15.5364 25.7266 14.1051C23.6331 12.8998 22.9827 12.4729 22.9726 12.2846C22.9522 12.1088 23.2774 11.7573 24.2937 10.891C25.0254 10.2507 25.7063 9.72335 25.7978 9.72335C25.8892 9.72335 26.1738 9.92424 26.438 10.1879ZM18.9177 10.439C19.0498 11.5062 19.3953 17.2816 19.3445 17.4448C19.314 17.5452 19.2226 17.6331 19.1311 17.6331C19.0498 17.6331 18.3181 17.2439 17.5051 16.7668L16.0315 15.888V15.3481C16.0315 14.0298 16.7429 12.134 17.7185 10.8533C18.5213 9.79868 18.8262 9.69824 18.9177 10.439ZM27.3526 15.8001L28.7551 16.6287L28.6839 17.2314C28.4705 19.0644 27.81 20.684 26.7632 21.9396C26.0417 22.7933 25.8587 22.7305 25.7673 21.588C25.5234 18.738 25.2896 15.0844 25.3404 14.9714C25.4522 14.758 25.8689 14.9338 27.3526 15.8001ZM19.0295 18.4241C21.0925 19.6168 21.6819 20.0061 21.7022 20.2069C21.7124 20.3953 21.4278 20.7217 20.4319 21.5755C19.7205 22.1907 19.0295 22.7305 18.9075 22.7556C18.7246 22.7933 18.501 22.5924 17.8811 21.8266C16.9868 20.7217 16.4583 19.5666 16.1738 18.1102C16.001 17.2439 16.0315 16.8798 16.2551 16.8924C16.3262 16.8924 17.5762 17.5829 19.0295 18.4241ZM24.9746 19.0393C24.9847 19.1272 25.0457 20.0688 25.127 21.136C25.1982 22.2032 25.2388 23.1323 25.2083 23.2202C25.1575 23.3834 24.6189 23.6722 23.8567 23.9233C23.6026 24.0112 22.9217 24.0865 22.3323 24.0865C21.4888 24.0991 21.1128 24.0363 20.5335 23.8103C19.8831 23.5592 19.7917 23.4838 19.7917 23.2327C19.7917 23.0695 19.8526 22.9063 19.9238 22.8686C19.9847 22.831 21.0518 21.927 22.2815 20.8473C24.3547 19.0393 24.9644 18.625 24.9746 19.0393Z" fill="black"/>
<path d="M88.9583 8.98261C87.3018 9.48482 85.8892 11.4058 85.3709 13.8666C84.9746 15.8001 85.2388 18.6752 85.9807 20.2697C87.627 23.848 91.5092 24.4632 93.7246 21.5127C95.5844 19.0142 95.8079 14.3186 94.2022 11.3932C93.684 10.439 93.1148 9.84892 92.1901 9.3216C91.5498 8.94494 91.3872 8.90728 90.4218 8.88217C89.8323 8.86961 89.1819 8.90728 88.9583 8.98261Z" fill="black"/>
<path d="M74.0599 16.1265V23.1574H75.8181C78.2063 23.1574 79.1311 23.0068 79.9542 22.5046C81.3059 21.6885 82.2916 19.9935 82.6575 17.8842C82.9929 15.9382 82.6778 13.3016 81.9258 11.8326C81.2754 10.5646 80.0051 9.48482 78.8465 9.22116C78.5518 9.15838 77.3425 9.09561 76.1839 9.09561H74.0599V16.1265Z" fill="black"/>
</svg>
