<?xml version="1.0" encoding="UTF-8"?>
<svg xmlns="http://www.w3.org/2000/svg" xmlns:xlink="http://www.w3.org/1999/xlink" width="72pt" height="72pt" viewBox="0 0 72 72" version="1.1">
<defs>
<linearGradient id="linear0" gradientUnits="userSpaceOnUse" x1="9.8581" y1="9.8581" x2="38.141899" y2="38.141899" gradientTransform="matrix(1.5,0,0,1.5,0,0)">
<stop offset="0" style="stop-color:rgb(20%,74.509805%,94.117647%);stop-opacity:1;"/>
<stop offset="1" style="stop-color:rgb(3.921569%,52.156866%,85.09804%);stop-opacity:1;"/>
</linearGradient>
<filter id="alpha" filterUnits="objectBoundingBox" x="0%" y="0%" width="100%" height="100%">
  <feColorMatrix type="matrix" in="SourceGraphic" values="0 0 0 0 1 0 0 0 0 1 0 0 0 0 1 0 0 0 1 0"/>
</filter>
<mask id="mask0">
  <g filter="url(#alpha)">
<rect x="0" y="0" width="72" height="72" style="fill:rgb(0%,0%,0%);fill-opacity:0.05;stroke:none;"/>
  </g>
</mask>
<clipPath id="clip1">
  <rect x="0" y="0" width="72" height="72"/>
</clipPath>
<g id="surface6753" clip-path="url(#clip1)">
<path style=" stroke:none;fill-rule:nonzero;fill:rgb(0%,0%,0%);fill-opacity:1;" d="M 15.179688 35.199219 C 27.410156 29.65625 41.777344 23.644531 43.992188 22.773438 C 48.867188 20.855469 50.996094 22.816406 50.664062 25.941406 C 50.253906 29.773438 48.3125 40.925781 47.117188 48.917969 C 46.417969 53.59375 43.886719 55.027344 41.03125 53.210938 C 38.863281 51.835938 31.410156 46.957031 29.449219 45.289062 C 28.113281 44.152344 27.179688 42.878906 28.128906 41.578125 C 28.40625 41.199219 29.117188 40.433594 29.511719 40.054688 C 31.488281 38.136719 31.222656 37.722656 28.828125 39.433594 C 28.546875 39.640625 26.890625 40.835938 26.210938 41.289062 C 24.546875 42.402344 23.015625 42.460938 20.417969 41.578125 C 18.296875 40.855469 16.253906 40.300781 14.96875 39.742188 C 13.191406 38.972656 12.511719 36.40625 15.179688 35.199219 Z M 15.179688 35.199219 "/>
</g>
<mask id="mask1">
  <g filter="url(#alpha)">
<rect x="0" y="0" width="72" height="72" style="fill:rgb(0%,0%,0%);fill-opacity:0.07;stroke:none;"/>
  </g>
</mask>
<clipPath id="clip2">
  <rect x="0" y="0" width="72" height="72"/>
</clipPath>
<g id="surface6757" clip-path="url(#clip2)">
<path style=" stroke:none;fill-rule:nonzero;fill:rgb(0%,0%,0%);fill-opacity:1;" d="M 16.253906 35.386719 C 27.613281 30.308594 41.578125 24.492188 43.621094 23.667969 C 48.519531 21.691406 50.320312 22.863281 49.792969 26.683594 C 49.304688 30.21875 47.570312 41.164062 46.351562 48.5 C 45.636719 52.820312 43.542969 53.769531 40.816406 52.007812 C 39.105469 50.90625 32.230469 46.375 30.5625 45.058594 C 29.273438 44.039062 27.9375 42.863281 29.496094 41.160156 C 30.019531 40.589844 32.902344 37.808594 35.058594 35.738281 C 36.308594 34.539062 35.863281 33.945312 34.355469 34.976562 C 31.589844 36.871094 27.066406 39.871094 26.261719 40.414062 C 24.722656 41.449219 23.277344 41.699219 20.765625 40.90625 C 18.78125 40.285156 16.867188 39.679688 15.871094 39.289062 C 13.640625 38.425781 13.613281 36.566406 16.253906 35.386719 Z M 16.253906 35.386719 "/>
</g>
</defs>
<g id="surface6747">
<path style=" stroke:none;fill-rule:nonzero;fill:url(#linear0);" d="M 66 36 C 66 52.566406 52.566406 66 36 66 C 19.433594 66 6 52.566406 6 36 C 6 19.433594 19.433594 6 36 6 C 52.566406 6 66 19.433594 66 36 Z M 66 36 "/>
<use xlink:href="#surface6753" mask="url(#mask0)"/>
<use xlink:href="#surface6757" mask="url(#mask1)"/>
<path style=" stroke:none;fill-rule:nonzero;fill:rgb(100%,100%,100%);fill-opacity:1;" d="M 17.328125 35.574219 C 27.816406 30.964844 41.382812 25.339844 43.253906 24.5625 C 48.167969 22.523438 49.675781 22.914062 48.925781 27.425781 C 48.382812 30.667969 46.828125 41.40625 45.585938 48.085938 C 44.847656 52.050781 43.195312 52.519531 40.597656 50.804688 C 39.347656 49.980469 33.039062 45.808594 31.671875 44.828125 C 30.421875 43.9375 28.699219 42.863281 30.859375 40.746094 C 31.628906 39.996094 36.671875 35.179688 40.597656 31.433594 C 41.113281 30.941406 40.46875 30.132812 39.871094 30.527344 C 34.578125 34.039062 27.238281 38.910156 26.300781 39.546875 C 24.890625 40.503906 23.535156 40.945312 21.101562 40.246094 C 19.261719 39.71875 17.46875 39.085938 16.769531 38.847656 C 14.074219 37.921875 14.714844 36.726562 17.328125 35.574219 Z M 17.328125 35.574219 "/>
</g>
</svg>
