<svg width="47" height="51" viewBox="0 0 47 51" fill="none" xmlns="http://www.w3.org/2000/svg">
<g id="logos:tiktok-icon" clip-path="url(#clip0_29_147)">
<path id="Vector" d="M34.4278 18.3635C37.8172 20.7103 41.9696 22.0912 46.4541 22.0912V13.7325C45.6053 13.7327 44.7589 13.6468 43.9285 13.4764V20.056C39.4443 20.056 35.2925 18.6753 31.9023 16.3286V33.3865C31.9023 41.9198 24.7605 48.8368 15.9514 48.8368C12.6645 48.8368 9.60934 47.8743 7.07153 46.2235C9.9681 49.0924 14.0075 50.8719 18.4763 50.8719C27.2862 50.8719 34.4282 43.9549 34.4282 35.4212V18.3635H34.4278ZM37.5436 9.93052C35.8113 8.09751 34.6739 5.72865 34.4278 3.10971V2.03467H32.0344C32.6369 5.36321 34.692 8.2069 37.5436 9.93052ZM12.6433 39.6755C11.6755 38.4465 11.1524 36.9428 11.1547 35.3968C11.1547 31.494 14.4213 28.3296 18.4515 28.3296C19.2024 28.3292 19.949 28.4409 20.6648 28.6607V20.115C19.8283 20.0041 18.9841 19.9568 18.1403 19.9742V26.6256C17.4241 26.4056 16.6771 26.294 15.9258 26.2947C11.8958 26.2947 8.62942 29.4588 8.62942 33.362C8.62942 36.122 10.2621 38.5114 12.6433 39.6755Z" fill="#FF004F"/>
<g id="Group 2">
<path id="Vector_2" d="M31.9023 16.3284C35.2926 18.6751 39.444 20.0558 43.9284 20.0558V13.4763C41.4253 12.9597 39.2094 11.6928 37.5434 9.93052C34.6916 8.20672 32.6369 5.36303 32.0344 2.03467H25.7479V35.4208C25.7335 39.313 22.4726 42.4645 18.4511 42.4645C16.0815 42.4645 13.9761 41.3704 12.6429 39.6753C10.262 38.5114 8.6292 36.1218 8.6292 33.3622C8.6292 29.4593 11.8956 26.2948 15.9256 26.2948C16.6977 26.2948 17.4419 26.4113 18.14 26.6258V19.9744C9.48554 20.1476 2.52539 26.9971 2.52539 35.421C2.52539 39.6262 4.25858 43.4384 7.07167 46.2239C9.60948 47.8743 12.6645 48.8372 15.9516 48.8372C24.7609 48.8372 31.9025 41.9197 31.9025 33.3865V16.3286L31.9023 16.3284Z" fill="black"/>
<path id="Vector_3" d="M43.9285 13.4763V11.6976C41.6713 11.701 39.4586 11.0887 37.5434 9.93076C39.2387 11.7284 41.471 12.9681 43.9285 13.4767V13.4763ZM32.0343 2.03472C31.9769 1.7167 31.9328 1.39654 31.9022 1.07504V0H23.2219V33.3865C23.2081 37.2784 19.9472 40.4298 15.9255 40.4298C14.7854 40.4315 13.6609 40.1732 12.6428 39.6759C13.976 41.3707 16.0814 42.4645 18.451 42.4645C22.4723 42.4645 25.7336 39.3134 25.7477 35.4213V2.0349H32.0343V2.03472ZM18.1405 19.9744V18.0806C17.4152 17.9845 16.6839 17.9364 15.9518 17.9367C7.14162 17.9367 0 24.8541 0 33.3865C0 38.7361 2.80674 43.4506 7.07193 46.2238C4.25884 43.4385 2.52565 39.6261 2.52565 35.4211C2.52565 26.9973 9.48562 20.1476 18.1405 19.9744Z" fill="#00F2EA"/>
</g>
</g>
<defs>
<clipPath id="clip0_29_147">
<rect width="46.4554" height="51" fill="white"/>
</clipPath>
</defs>
</svg>
