<?xml version="1.0" encoding="UTF-8"?>
<svg xmlns="http://www.w3.org/2000/svg" xmlns:xlink="http://www.w3.org/1999/xlink" width="45pt" height="45pt" viewBox="0 0 45 45" version="1.1">
<g id="surface11903">
<path style=" stroke:none;fill-rule:nonzero;fill:rgb(9.803922%,46.27451%,82.352942%);fill-opacity:1;" d="M 41.25 22.5 C 41.25 32.855469 32.855469 41.25 22.5 41.25 C 12.144531 41.25 3.75 32.855469 3.75 22.5 C 3.75 12.144531 12.144531 3.75 22.5 3.75 C 32.855469 3.75 41.25 12.144531 41.25 22.5 Z M 41.25 22.5 "/>
<path style=" stroke:none;fill-rule:nonzero;fill:rgb(100%,100%,100%);fill-opacity:1;" d="M 33.691406 16.914062 C 33.734375 16.773438 33.753906 16.640625 33.75 16.523438 C 33.734375 16.183594 33.5 15.9375 32.953125 15.9375 L 30.496094 15.9375 C 29.878906 15.9375 29.59375 16.3125 29.425781 16.6875 C 29.425781 16.6875 27.894531 19.835938 26.132812 21.914062 C 25.558594 22.515625 25.269531 22.5 24.960938 22.5 C 24.792969 22.5 24.375 22.300781 24.375 21.75 L 24.375 16.886719 C 24.375 16.238281 24.210938 15.9375 23.6875 15.9375 L 19.332031 15.9375 C 18.949219 15.9375 18.75 16.238281 18.75 16.539062 C 18.75 17.164062 19.59375 17.3125 19.6875 19.066406 L 19.6875 22.460938 C 19.6875 23.289062 19.542969 23.4375 19.234375 23.4375 C 18.398438 23.4375 16.757812 20.625 15.65625 16.9375 C 15.421875 16.214844 15.183594 15.9375 14.5625 15.9375 L 12.085938 15.9375 C 11.367188 15.9375 11.25 16.289062 11.25 16.664062 C 11.25 17.339844 11.8125 20.992188 14.882812 25.195312 C 17.109375 28.242188 20.042969 30 22.640625 30 C 24.210938 30 24.375 29.601562 24.375 28.972656 L 24.375 26.1875 C 24.375 25.4375 24.546875 25.3125 25.046875 25.3125 C 25.40625 25.3125 26.132812 25.546875 27.539062 27.1875 C 29.160156 29.078125 29.457031 30 30.386719 30 L 32.839844 30 C 33.410156 30 33.738281 29.761719 33.75 29.296875 C 33.753906 29.179688 33.734375 29.046875 33.699219 28.898438 C 33.515625 28.359375 32.679688 27.039062 31.640625 25.78125 C 31.0625 25.085938 30.496094 24.394531 30.234375 24.019531 C 30.058594 23.773438 29.992188 23.601562 30 23.4375 C 30.007812 23.265625 30.097656 23.097656 30.234375 22.867188 C 30.210938 22.867188 33.382812 18.414062 33.691406 16.914062 Z M 33.691406 16.914062 "/>
</g>
</svg>
