<?xml version="1.0" encoding="UTF-8"?>
<svg xmlns="http://www.w3.org/2000/svg" xmlns:xlink="http://www.w3.org/1999/xlink" width="72pt" height="72pt" viewBox="0 0 72 72" version="1.1">
<g id="surface5623">
<path style=" stroke:none;fill-rule:nonzero;fill:rgb(100%,100%,100%);fill-opacity:1;" d="M 7.300781 64.953125 L 11.34375 50.203125 C 8.851562 45.886719 7.539062 40.984375 7.539062 35.96875 C 7.546875 20.269531 20.320312 7.5 36.019531 7.5 C 43.640625 7.503906 50.789062 10.46875 56.164062 15.847656 C 61.542969 21.230469 64.503906 28.382812 64.5 35.992188 C 64.492188 51.6875 51.71875 64.460938 36.019531 64.460938 L 36.007812 64.460938 C 31.242188 64.460938 26.558594 63.265625 22.398438 60.996094 Z M 7.300781 64.953125 "/>
<path style=" stroke:none;fill-rule:nonzero;fill:rgb(100%,100%,100%);fill-opacity:1;" d="M 7.300781 65.703125 C 7.105469 65.703125 6.910156 65.625 6.769531 65.484375 C 6.582031 65.292969 6.507812 65.015625 6.578125 64.757812 L 10.539062 50.304688 C 8.082031 45.945312 6.789062 40.996094 6.792969 35.96875 C 6.796875 19.855469 19.910156 6.75 36.019531 6.75 C 43.835938 6.753906 51.179688 9.796875 56.695312 15.320312 C 62.214844 20.84375 65.253906 28.183594 65.25 35.992188 C 65.242188 52.101562 52.132812 65.210938 36.019531 65.210938 C 31.238281 65.210938 26.503906 64.027344 22.304688 61.796875 L 7.492188 65.679688 C 7.429688 65.695312 7.367188 65.703125 7.300781 65.703125 Z M 7.300781 65.703125 "/>
<path style=" stroke:none;fill-rule:nonzero;fill:rgb(81.176472%,84.705883%,86.274511%);fill-opacity:1;" d="M 36.019531 7.5 C 43.640625 7.503906 50.789062 10.46875 56.164062 15.847656 C 61.542969 21.230469 64.503906 28.382812 64.5 35.992188 C 64.492188 51.6875 51.71875 64.460938 36.019531 64.460938 L 36.007812 64.460938 C 31.242188 64.460938 26.558594 63.265625 22.398438 60.996094 L 7.300781 64.953125 L 11.34375 50.203125 C 8.851562 45.886719 7.539062 40.984375 7.539062 35.96875 C 7.546875 20.269531 20.320312 7.5 36.019531 7.5 M 36.019531 64.460938 L 36.019531 64.460938 M 36.019531 64.460938 L 36.019531 64.460938 M 36.019531 6 C 19.496094 6 6.046875 19.441406 6.039062 35.96875 C 6.039062 41.019531 7.3125 45.996094 9.730469 50.402344 L 5.855469 64.558594 C 5.714844 65.078125 5.859375 65.628906 6.234375 66.011719 C 6.519531 66.296875 6.90625 66.457031 7.300781 66.457031 C 7.429688 66.457031 7.558594 66.441406 7.683594 66.40625 L 22.214844 62.597656 C 26.457031 64.796875 31.210938 65.960938 36.007812 65.960938 C 52.546875 65.960938 65.992188 52.519531 66 35.992188 C 66.003906 27.984375 62.890625 20.453125 57.230469 14.789062 C 51.566406 9.125 44.035156 6.003906 36.019531 6 Z M 36.019531 6 "/>
<path style=" stroke:none;fill-rule:nonzero;fill:rgb(25.098041%,76.47059%,31.764707%);fill-opacity:1;" d="M 52.765625 19.246094 C 48.292969 14.773438 42.351562 12.308594 36.027344 12.308594 C 22.972656 12.308594 12.355469 22.921875 12.347656 35.96875 C 12.347656 40.441406 13.597656 44.792969 15.96875 48.5625 L 16.53125 49.460938 L 14.140625 58.191406 L 23.097656 55.84375 L 23.964844 56.355469 C 27.597656 58.511719 31.765625 59.652344 36.011719 59.652344 L 36.019531 59.652344 C 49.066406 59.652344 59.6875 49.039062 59.691406 35.988281 C 59.691406 29.667969 57.234375 23.722656 52.765625 19.246094 Z M 52.765625 19.246094 "/>
<path style=" stroke:none;fill-rule:evenodd;fill:rgb(100%,100%,100%);fill-opacity:1;" d="M 28.902344 24.066406 C 28.371094 22.882812 27.808594 22.859375 27.300781 22.835938 C 26.882812 22.820312 26.410156 22.820312 25.9375 22.820312 C 25.460938 22.820312 24.691406 23 24.039062 23.710938 C 23.386719 24.425781 21.546875 26.144531 21.546875 29.644531 C 21.546875 33.148438 24.097656 36.53125 24.453125 37.003906 C 24.808594 37.480469 29.375 44.894531 36.609375 47.746094 C 42.621094 50.117188 43.84375 49.644531 45.148438 49.527344 C 46.453125 49.410156 49.359375 47.804688 49.953125 46.144531 C 50.542969 44.484375 50.542969 43.058594 50.367188 42.761719 C 50.1875 42.464844 49.714844 42.289062 49.003906 41.929688 C 48.292969 41.574219 44.792969 39.851562 44.140625 39.617188 C 43.488281 39.378906 43.015625 39.261719 42.539062 39.972656 C 42.066406 40.683594 40.699219 42.289062 40.285156 42.761719 C 39.871094 43.238281 39.453125 43.296875 38.742188 42.941406 C 38.03125 42.582031 35.742188 41.832031 33.019531 39.410156 C 30.90625 37.523438 29.476562 35.195312 29.0625 34.480469 C 28.648438 33.769531 29.015625 33.386719 29.375 33.03125 C 29.695312 32.710938 30.085938 32.199219 30.441406 31.785156 C 30.796875 31.367188 30.917969 31.070312 31.152344 30.597656 C 31.390625 30.121094 31.273438 29.707031 31.09375 29.351562 C 30.917969 28.992188 29.535156 25.472656 28.902344 24.066406 Z M 28.902344 24.066406 "/>
</g>
</svg>
