<svg width="73" height="50" viewBox="0 0 73 50" fill="none" xmlns="http://www.w3.org/2000/svg">
<g id="Group 1">
<path id="Vector" d="M71.389 7.82971C70.9703 6.31636 70.1535 4.93668 69.02 3.82806C67.8865 2.71945 66.4758 1.92058 64.9284 1.511C59.2634 0 36.4636 0 36.4636 0C36.4636 0 13.6627 0.0457371 7.99768 1.55674C6.45026 1.96634 5.03954 2.76525 3.90603 3.87392C2.77252 4.98258 1.95575 6.36232 1.53707 7.87573C-0.17646 17.7198 -0.84117 32.72 1.58412 42.1703C2.00285 43.6836 2.81963 45.0633 3.95314 46.1719C5.08665 47.2806 6.49734 48.0794 8.04473 48.489C13.7097 50 36.5101 50 36.5101 50C36.5101 50 59.3101 50 64.9749 48.489C66.5223 48.0795 67.9331 47.2806 69.0666 46.172C70.2002 45.0634 71.017 43.6837 71.4358 42.1703C73.2431 32.3122 73.8 17.3213 71.389 7.82971Z" fill="#FF0000"/>
<path id="Vector_2" d="M30.2271 35.9304L49.1412 25.2162L30.2271 14.502V35.9304Z" fill="white"/>
</g>
</svg>
